<?xml version="1.0" encoding="utf-8"?>
<!-- Generator: Adobe Illustrator 22.0.0, SVG Export Plug-In . SVG Version: 6.00 Build 0)  -->
<svg version="1.1" id="Layer_1" xmlns="http://www.w3.org/2000/svg" xmlns:xlink="http://www.w3.org/1999/xlink" x="0px" y="0px"
	 viewBox="0 0 640 480" style="enable-background:new 0 0 640 480;" xml:space="preserve">
<style type="text/css">
	.st0{fill:#FFFFFF;}
	.st1{fill:#FF4081;}
</style>
<g>
	<path class="st0" d="M10.5,10.6h7.7c1.2,0,2.4,0.1,3.4,0.3c1.1,0.2,2,0.5,2.8,0.9s1.4,1,1.9,1.8c0.5,0.8,0.7,1.7,0.7,2.9
		c0,0.5-0.1,1-0.2,1.5c-0.2,0.5-0.4,1-0.7,1.5s-0.7,0.9-1.2,1.2c-0.5,0.4-1.1,0.6-1.8,0.8v0.1c1.7,0.3,2.9,0.9,3.7,1.8
		c0.8,0.9,1.2,2.1,1.2,3.7c0,1.2-0.2,2.2-0.7,3.1c-0.5,0.9-1.1,1.6-1.9,2.2c-0.8,0.6-1.8,1-2.9,1.2C21.4,33.9,20.2,34,19,34h-8.4
		V10.6z M18.1,19.8c1,0,1.7-0.2,2.2-0.7c0.5-0.5,0.7-1,0.7-1.8c0-0.7-0.2-1.2-0.7-1.5c-0.5-0.3-1.2-0.5-2.2-0.5h-1.4v4.5H18.1z
		 M18.5,29.2c1.2,0,2.1-0.2,2.6-0.7c0.5-0.5,0.8-1.1,0.8-2c0-0.9-0.3-1.5-0.8-1.9c-0.5-0.4-1.4-0.6-2.6-0.6h-1.8v5.1H18.5z"/>
	<path class="st0" d="M29.2,16h13v18H36V20.8h-6.8V16z M38.9,13.8c-1.2,0-2.1-0.3-2.8-1c-0.7-0.7-1.1-1.5-1.1-2.6s0.4-2,1.1-2.6
		c0.7-0.7,1.7-1,2.8-1c1.2,0,2.1,0.3,2.8,1c0.7,0.7,1.1,1.6,1.1,2.6s-0.4,2-1.1,2.6C41,13.4,40.1,13.8,38.9,13.8z"/>
	<path class="st0" d="M51.1,20.8h-4.3v-4.6l4.6-0.2l0.8-4.7h5.1V16h7.1v4.8h-7.1v5.4c0,1.3,0.3,2.2,0.9,2.6c0.6,0.5,1.5,0.7,2.6,0.7
		c0.6,0,1.2-0.1,1.7-0.2c0.5-0.1,1-0.2,1.5-0.4l1.1,4.5c-0.8,0.2-1.7,0.4-2.7,0.6c-1,0.2-2.1,0.3-3.3,0.3c-1.5,0-2.7-0.2-3.8-0.6
		c-1-0.4-1.8-0.9-2.5-1.6c-0.6-0.7-1.1-1.6-1.4-2.6c-0.3-1-0.4-2.1-0.4-3.3V20.8z"/>
	<path class="st1" d="M66.3,28.8h5.3v-13h-5.3v-5.2h16.8v5.2h-5.3v13h5.3V34H66.3V28.8z"/>
	<path class="st1" d="M88.1,22.5c0-2,0.3-3.7,0.9-5.2c0.6-1.5,1.4-2.8,2.4-3.9s2.2-1.8,3.6-2.4c1.4-0.6,2.9-0.8,4.5-0.8
		c1.5,0,2.9,0.3,4.1,0.9c1.2,0.6,2.2,1.3,3.1,2.1l-3.4,3.8c-0.6-0.5-1.1-0.9-1.7-1.1c-0.6-0.3-1.3-0.4-2.1-0.4c-0.7,0-1.4,0.2-2,0.5
		c-0.6,0.3-1.2,0.8-1.6,1.3c-0.5,0.6-0.8,1.3-1.1,2.1c-0.3,0.8-0.4,1.8-0.4,2.8c0,2.2,0.5,3.9,1.5,5.1c1,1.2,2.3,1.8,3.9,1.8
		c0.8,0,1.5-0.2,2.1-0.5c0.6-0.3,1.2-0.8,1.7-1.4L107,31c-1,1.2-2.1,2-3.4,2.6c-1.3,0.6-2.6,0.9-4.1,0.9c-1.5,0-3-0.2-4.4-0.7
		c-1.4-0.5-2.6-1.2-3.6-2.2c-1-1-1.9-2.2-2.5-3.7C88.4,26.2,88.1,24.5,88.1,22.5z"/>
	<path class="st1" d="M119.4,34.4c-1.4,0-2.7-0.3-3.9-0.8c-1.2-0.6-2.2-1.4-3-2.4s-1.5-2.3-2-3.9c-0.5-1.5-0.7-3.2-0.7-5.2
		c0-1.9,0.2-3.6,0.7-5.1c0.5-1.5,1.1-2.8,2-3.8s1.8-1.8,3-2.3c1.2-0.5,2.5-0.8,3.9-0.8s2.7,0.3,3.9,0.8c1.2,0.5,2.2,1.3,3,2.3
		c0.8,1,1.5,2.3,2,3.8c0.5,1.5,0.7,3.2,0.7,5.1c0,1.9-0.2,3.6-0.7,5.2c-0.5,1.5-1.1,2.8-2,3.9s-1.8,1.8-3,2.4
		C122.1,34.2,120.8,34.4,119.4,34.4z M119.4,29.1c1,0,1.8-0.6,2.4-1.9c0.6-1.2,0.9-2.9,0.9-5.1c0-2.1-0.3-3.8-0.9-4.9
		s-1.4-1.7-2.4-1.7s-1.8,0.6-2.4,1.7s-0.9,2.8-0.9,4.9c0,2.1,0.3,3.8,0.9,5.1C117.6,28.5,118.4,29.1,119.4,29.1z"/>
</g>
</svg>
