<svg width="138" height="31" viewBox="0 0 138 31" version="1.1" xmlns="http://www.w3.org/2000/svg" xmlns:xlink="http://www.w3.org/1999/xlink">
<title>ICOX-logo</title>
<desc>Created using Figma</desc>
<g id="Canvas" transform="translate(344 351)">
<g id="ICOX-logo">
<use xlink:href="#path0_fill" transform="translate(-347 -360)" fill="#FFFFFF"/>
</g>
</g>
<defs>
<path id="path0_fill" d="M 23.562 30.39L 31.164 30.39C 31.472 30.39 31.738 30.502 31.962 30.726C 32.186 30.95 32.298 31.216 32.298 31.524L 32.298 37.866C 32.298 38.174 32.186 38.44 31.962 38.664C 31.738 38.888 31.472 39 31.164 39L 4.536 39C 4.228 39 3.962 38.888 3.738 38.664C 3.514 38.44 3.402 38.174 3.402 37.866L 3.402 31.524C 3.402 31.216 3.514 30.95 3.738 30.726C 3.962 30.502 4.228 30.39 4.536 30.39L 12.222 30.39L 12.222 18.21L 4.536 18.21C 4.228 18.21 3.962 18.098 3.738 17.874C 3.514 17.65 3.402 17.384 3.402 17.076L 3.402 10.734C 3.402 10.426 3.514 10.16 3.738 9.936C 3.962 9.712 4.228 9.6 4.536 9.6L 31.164 9.6C 31.472 9.6 31.738 9.712 31.962 9.936C 32.186 10.16 32.298 10.426 32.298 10.734L 32.298 17.076C 32.298 17.384 32.186 17.65 31.962 17.874C 31.738 18.098 31.472 18.21 31.164 18.21L 23.562 18.21L 23.562 30.39ZM 49.6696 27.66C 49.6696 28.808 50.0476 29.69 50.8036 30.306C 51.5876 30.922 52.6376 31.23 53.9536 31.23C 55.1296 31.23 55.9976 31.034 56.5576 30.642C 57.1176 30.25 57.5936 29.662 57.9856 28.878C 58.3496 28.15 58.8396 27.786 59.4556 27.786L 68.5276 27.786C 68.7796 27.786 68.9896 27.884 69.1576 28.08C 69.3536 28.248 69.4516 28.458 69.4516 28.71C 69.4516 30.418 68.8776 32.098 67.7296 33.75C 66.5816 35.374 64.8316 36.732 62.4796 37.824C 60.1556 38.888 57.3136 39.42 53.9536 39.42C 50.9576 39.42 48.2836 38.972 45.9316 38.076C 43.6076 37.152 41.7596 35.752 40.3876 33.876C 39.0156 31.972 38.3296 29.606 38.3296 26.778L 38.3296 21.822C 38.3296 18.994 39.0156 16.642 40.3876 14.766C 41.7596 12.862 43.6076 11.462 45.9316 10.566C 48.2836 9.642 50.9576 9.18 53.9536 9.18C 57.3136 9.18 60.1556 9.726 62.4796 10.818C 64.8316 11.882 66.5816 13.24 67.7296 14.892C 68.8776 16.516 69.4516 18.182 69.4516 19.89C 69.4516 20.142 69.3536 20.366 69.1576 20.562C 68.9896 20.73 68.7796 20.814 68.5276 20.814L 59.4556 20.814C 58.8396 20.814 58.3496 20.45 57.9856 19.722C 57.5936 18.938 57.1176 18.35 56.5576 17.958C 55.9976 17.566 55.1296 17.37 53.9536 17.37C 52.6376 17.37 51.5876 17.678 50.8036 18.294C 50.0476 18.91 49.6696 19.792 49.6696 20.94L 49.6696 27.66ZM 104.841 26.862C 104.841 31.146 103.413 34.31 100.557 36.354C 97.7292 38.398 93.9492 39.42 89.2172 39.42C 84.4852 39.42 80.6912 38.398 77.8352 36.354C 75.0072 34.31 73.5932 31.118 73.5932 26.778L 73.5932 21.822C 73.5932 18.966 74.2652 16.6 75.6092 14.724C 76.9812 12.82 78.8432 11.42 81.1952 10.524C 83.5472 9.628 86.2212 9.18 89.2172 9.18C 92.2132 9.18 94.8732 9.628 97.1972 10.524C 99.5492 11.42 101.411 12.806 102.783 14.682C 104.155 16.558 104.841 18.91 104.841 21.738L 104.841 26.862ZM 84.9332 27.66C 84.9332 28.808 85.3112 29.69 86.0672 30.306C 86.8512 30.922 87.9012 31.23 89.2172 31.23C 90.5332 31.23 91.5692 30.922 92.3252 30.306C 93.1092 29.662 93.5012 28.766 93.5012 27.618L 93.5012 20.982C 93.5012 19.834 93.1092 18.952 92.3252 18.336C 91.5692 17.692 90.5332 17.37 89.2172 17.37C 87.9012 17.37 86.8512 17.678 86.0672 18.294C 85.3112 18.91 84.9332 19.792 84.9332 20.94L 84.9332 27.66ZM 140.483 37.614C 140.567 37.698 140.609 37.81 140.609 37.95C 140.609 38.23 140.511 38.482 140.315 38.706C 140.147 38.902 139.937 39 139.685 39L 130.655 39C 129.899 39 129.325 38.678 128.933 38.034L 124.859 31.776L 120.869 38.034C 120.449 38.678 119.875 39 119.147 39L 110.075 39C 109.823 39 109.599 38.916 109.403 38.748C 109.235 38.552 109.151 38.328 109.151 38.076L 109.151 37.95C 109.151 37.81 109.193 37.698 109.277 37.614L 118.559 23.418L 110.285 10.986C 110.201 10.874 110.159 10.72 110.159 10.524C 110.159 10.272 110.243 10.062 110.411 9.894C 110.607 9.698 110.831 9.6 111.083 9.6L 120.155 9.6C 120.883 9.6 121.471 9.95 121.919 10.65L 125.195 16.026L 128.723 10.566C 128.919 10.314 129.129 10.09 129.353 9.894C 129.605 9.698 129.969 9.6 130.445 9.6L 139.475 9.6C 139.727 9.6 139.937 9.698 140.105 9.894C 140.301 10.062 140.399 10.272 140.399 10.524L 140.399 10.65C 140.399 10.79 140.357 10.902 140.273 10.986L 131.495 23.964L 140.483 37.614Z"/>
</defs>
</svg>
